<?xml version="1.0" encoding="UTF-8" standalone="no"?><!DOCTYPE svg PUBLIC "-//W3C//DTD SVG 1.1//EN" "http://www.w3.org/Graphics/SVG/1.1/DTD/svg11.dtd"><!-- Generated by graphviz version 2.40.1 (20161225.0304)
 --><!-- Title: G Pages: 1 --><svg xmlns="http://www.w3.org/2000/svg" xmlns:xlink="http://www.w3.org/1999/xlink" width="649pt" height="332pt" viewBox="0.00 0.00 649.00 332.00">
<g id="graph0" class="graph" transform="scale(1 1) rotate(0) translate(4 328)">
<title>G</title>
<polygon fill="#ffffff" stroke="transparent" points="-4,4 -4,-328 645,-328 645,4 -4,4"/>
<!-- .firma -->
<g id="node1" class="node">
<title>.firma</title>
<ellipse fill="none" stroke="#000000" cx="432" cy="-306" rx="34.2263" ry="18"/>
<text text-anchor="middle" x="432" y="-301.8" font-family="Times,serif" font-size="14.00" fill="#000000">.firma</text>
</g>
<!-- [network] -->
<g id="node2" class="node">
<title>[network]</title>
<ellipse fill="none" stroke="#000000" cx="432" cy="-234" rx="49.2163" ry="18"/>
<text text-anchor="middle" x="432" y="-229.8" font-family="Times,serif" font-size="14.00" fill="#000000">[network]</text>
</g>
<!-- .firma&#45;&gt;[network] -->
<g id="edge1" class="edge">
<title>.firma-&gt;[network]</title>
<path fill="none" stroke="#000000" d="M432,-287.8314C432,-280.131 432,-270.9743 432,-262.4166"/>
<polygon fill="#000000" stroke="#000000" points="435.5001,-262.4132 432,-252.4133 428.5001,-262.4133 435.5001,-262.4132"/>
</g>
<!-- wallets -->
<g id="node3" class="node">
<title>wallets</title>
<ellipse fill="none" stroke="#000000" cx="282" cy="-162" rx="38.2761" ry="18"/>
<text text-anchor="middle" x="282" y="-157.8" font-family="Times,serif" font-size="14.00" fill="#000000">wallets</text>
</g>
<!-- [network]&#45;&gt;wallets -->
<g id="edge2" class="edge">
<title>[network]-&gt;wallets</title>
<path fill="none" stroke="#000000" d="M402.0058,-219.6028C377.7918,-207.9801 343.646,-191.5901 317.9654,-179.2634"/>
<polygon fill="#000000" stroke="#000000" points="319.451,-176.0942 308.9212,-174.9222 316.4218,-182.4049 319.451,-176.0942"/>
</g>
<!-- keys -->
<g id="node4" class="node">
<title>keys</title>
<ellipse fill="none" stroke="#000000" cx="393" cy="-162" rx="28.9735" ry="18"/>
<text text-anchor="middle" x="393" y="-157.8" font-family="Times,serif" font-size="14.00" fill="#000000">keys</text>
</g>
<!-- [network]&#45;&gt;keys -->
<g id="edge3" class="edge">
<title>[network]-&gt;keys</title>
<path fill="none" stroke="#000000" d="M422.3595,-216.2022C417.758,-207.7071 412.1624,-197.3767 407.0954,-188.0223"/>
<polygon fill="#000000" stroke="#000000" points="410.1014,-186.2231 402.261,-179.0972 403.9464,-189.5572 410.1014,-186.2231"/>
</g>
<!-- psbts -->
<g id="node5" class="node">
<title>psbts</title>
<ellipse fill="none" stroke="#000000" cx="471" cy="-162" rx="30.777" ry="18"/>
<text text-anchor="middle" x="471" y="-157.8" font-family="Times,serif" font-size="14.00" fill="#000000">psbts</text>
</g>
<!-- [network]&#45;&gt;psbts -->
<g id="edge4" class="edge">
<title>[network]-&gt;psbts</title>
<path fill="none" stroke="#000000" d="M441.6405,-216.2022C446.2082,-207.7695 451.7554,-197.5285 456.7927,-188.2288"/>
<polygon fill="#000000" stroke="#000000" points="459.9197,-189.8045 461.605,-179.3446 453.7646,-186.4705 459.9197,-189.8045"/>
</g>
<!-- daemon_opts -->
<g id="node6" class="node">
<title>daemon_opts</title>
<polygon fill="none" stroke="#000000" points="610.1557,-180 519.8443,-180 519.8443,-144 610.1557,-144 610.1557,-180"/>
<text text-anchor="middle" x="565" y="-157.8" font-family="Times,serif" font-size="14.00" fill="#000000">daemon_opts</text>
</g>
<!-- [network]&#45;&gt;daemon_opts -->
<g id="edge5" class="edge">
<title>[network]-&gt;daemon_opts</title>
<path fill="none" stroke="#000000" d="M459.5577,-219.0816C477.7181,-209.2504 501.861,-196.1805 522.4622,-185.028"/>
<polygon fill="#000000" stroke="#000000" points="524.2167,-188.0582 531.3445,-180.2195 520.8841,-181.9023 524.2167,-188.0582"/>
</g>
<!-- [wallet name] -->
<g id="node10" class="node">
<title>[wallet name]</title>
<ellipse fill="none" stroke="#000000" cx="204" cy="-90" rx="64.2805" ry="18"/>
<text text-anchor="middle" x="204" y="-85.8" font-family="Times,serif" font-size="14.00" fill="#000000">[wallet name]</text>
</g>
<!-- wallets&#45;&gt;[wallet name] -->
<g id="edge9" class="edge">
<title>wallets-&gt;[wallet name]</title>
<path fill="none" stroke="#000000" d="M264.3006,-145.6621C254.2211,-136.3579 241.4033,-124.5261 230.1795,-114.1657"/>
<polygon fill="#000000" stroke="#000000" points="232.4391,-111.4883 222.717,-107.2773 227.6911,-116.6319 232.4391,-111.4883"/>
</g>
<!-- [key name] -->
<g id="node7" class="node">
<title>[key name]</title>
<ellipse fill="none" stroke="#000000" cx="393" cy="-90" rx="54.9771" ry="18"/>
<text text-anchor="middle" x="393" y="-85.8" font-family="Times,serif" font-size="14.00" fill="#000000">[key name]</text>
</g>
<!-- keys&#45;&gt;[key name] -->
<g id="edge6" class="edge">
<title>keys-&gt;[key name]</title>
<path fill="none" stroke="#000000" d="M393,-143.8314C393,-136.131 393,-126.9743 393,-118.4166"/>
<polygon fill="#000000" stroke="#000000" points="396.5001,-118.4132 393,-108.4133 389.5001,-118.4133 396.5001,-118.4132"/>
</g>
<!-- [psbt name] -->
<g id="node14" class="node">
<title>[psbt name]</title>
<ellipse fill="none" stroke="#000000" cx="583" cy="-90" rx="56.7814" ry="18"/>
<text text-anchor="middle" x="583" y="-85.8" font-family="Times,serif" font-size="14.00" fill="#000000">[psbt name]</text>
</g>
<!-- psbts&#45;&gt;[psbt name] -->
<g id="edge13" class="edge">
<title>psbts-&gt;[psbt name]</title>
<path fill="none" stroke="#000000" d="M491.8039,-148.6261C507.8598,-138.3044 530.4071,-123.8097 549.0648,-111.8155"/>
<polygon fill="#000000" stroke="#000000" points="551.0762,-114.6833 557.5953,-106.3316 547.2908,-108.7951 551.0762,-114.6833"/>
</g>
<!-- master_secret -->
<g id="node8" class="node">
<title>master_secret</title>
<polygon fill="none" stroke="#000000" points="409.4552,-36 316.5448,-36 316.5448,0 409.4552,0 409.4552,-36"/>
<text text-anchor="middle" x="363" y="-13.8" font-family="Times,serif" font-size="14.00" fill="#000000">master_secret</text>
</g>
<!-- [key name]&#45;&gt;master_secret -->
<g id="edge7" class="edge">
<title>[key name]-&gt;master_secret</title>
<path fill="none" stroke="#000000" d="M385.4297,-71.8314C382.1507,-63.9617 378.238,-54.5712 374.6055,-45.8533"/>
<polygon fill="#000000" stroke="#000000" points="377.7492,-44.2979 370.6722,-36.4133 371.2876,-46.9902 377.7492,-44.2979"/>
</g>
<!-- descriptor_public_key -->
<g id="node9" class="node">
<title>descriptor_public_key</title>
<polygon fill="none" stroke="#000000" points="568.6867,-36 427.3133,-36 427.3133,0 568.6867,0 568.6867,-36"/>
<text text-anchor="middle" x="498" y="-13.8" font-family="Times,serif" font-size="14.00" fill="#000000">descriptor_public_key</text>
</g>
<!-- [key name]&#45;&gt;descriptor_public_key -->
<g id="edge8" class="edge">
<title>[key name]-&gt;descriptor_public_key</title>
<path fill="none" stroke="#000000" d="M416.8261,-73.6621C430.4827,-64.2976 447.8732,-52.3726 463.0519,-41.9644"/>
<polygon fill="#000000" stroke="#000000" points="465.4203,-44.5842 471.6883,-36.0423 461.4616,-38.8111 465.4203,-44.5842"/>
</g>
<!-- wallet -->
<g id="node11" class="node">
<title>wallet</title>
<polygon fill="none" stroke="#000000" points="54,-36 0,-36 0,0 54,0 54,-36"/>
<text text-anchor="middle" x="27" y="-13.8" font-family="Times,serif" font-size="14.00" fill="#000000">wallet</text>
</g>
<!-- [wallet name]&#45;&gt;wallet -->
<g id="edge10" class="edge">
<title>[wallet name]-&gt;wallet</title>
<path fill="none" stroke="#000000" d="M163.7684,-75.7825C137.44,-66.2117 102.1787,-52.8929 63.6994,-36.1354"/>
<polygon fill="#000000" stroke="#000000" points="64.9486,-32.8613 54.3857,-32.0389 62.1303,-39.2689 64.9486,-32.8613"/>
</g>
<!-- wallet_indexes -->
<g id="node12" class="node">
<title>wallet_indexes</title>
<polygon fill="none" stroke="#000000" points="171.972,-36 72.028,-36 72.028,0 171.972,0 171.972,-36"/>
<text text-anchor="middle" x="122" y="-13.8" font-family="Times,serif" font-size="14.00" fill="#000000">wallet_indexes</text>
</g>
<!-- [wallet name]&#45;&gt;wallet_indexes -->
<g id="edge11" class="edge">
<title>[wallet name]-&gt;wallet_indexes</title>
<path fill="none" stroke="#000000" d="M184.1501,-72.5708C174.0045,-63.6625 161.4797,-52.6651 150.338,-42.8822"/>
<polygon fill="#000000" stroke="#000000" points="152.3472,-39.9886 142.5235,-36.0206 147.7286,-45.2487 152.3472,-39.9886"/>
</g>
<!-- wallet_signature -->
<g id="node13" class="node">
<title>wallet_signature</title>
<polygon fill="none" stroke="#000000" points="298.0242,-36 189.9758,-36 189.9758,0 298.0242,0 298.0242,-36"/>
<text text-anchor="middle" x="244" y="-13.8" font-family="Times,serif" font-size="14.00" fill="#000000">wallet_signature</text>
</g>
<!-- [wallet name]&#45;&gt;wallet_signature -->
<g id="edge12" class="edge">
<title>[wallet name]-&gt;wallet_signature</title>
<path fill="none" stroke="#000000" d="M213.8876,-72.2022C218.4684,-63.9569 224.0096,-53.9828 229.0833,-44.8501"/>
<polygon fill="#000000" stroke="#000000" points="232.1513,-46.5345 233.9483,-36.0931 226.0322,-43.1349 232.1513,-46.5345"/>
</g>
<!-- psbt -->
<g id="node15" class="node">
<title>psbt</title>
<polygon fill="none" stroke="#000000" points="641,-36 587,-36 587,0 641,0 641,-36"/>
<text text-anchor="middle" x="614" y="-13.8" font-family="Times,serif" font-size="14.00" fill="#000000">psbt</text>
</g>
<!-- [psbt name]&#45;&gt;psbt -->
<g id="edge14" class="edge">
<title>[psbt name]-&gt;psbt</title>
<path fill="none" stroke="#000000" d="M590.8226,-71.8314C594.2109,-63.9617 598.2541,-54.5712 602.0076,-45.8533"/>
<polygon fill="#000000" stroke="#000000" points="605.3321,-46.9822 606.0721,-36.4133 598.9027,-44.214 605.3321,-46.9822"/>
</g>
</g>
</svg>